<?xml version="1.0" standalone="no"?>
<!DOCTYPE svg PUBLIC "-//W3C//DTD SVG 20010904//EN"
 "http://www.w3.org/TR/2001/REC-SVG-20010904/DTD/svg10.dtd">
<svg version="1.0" xmlns="http://www.w3.org/2000/svg"
 width="500.000000pt" height="500.000000pt" viewBox="0 0 500.000000 500.000000"
 preserveAspectRatio="xMidYMid meet">

<g transform="translate(0.000000,500.000000) scale(0.100000,-0.100000)"
fill="#000000" stroke="none">
<path d="M620 4315 c0 -39 46 -126 135 -257 120 -175 158 -224 163 -210 6 19
-98 207 -192 350 -84 126 -106 150 -106 117z"/>
<path d="M1220 4194 c49 -141 62 -218 62 -344 0 -177 -43 -287 -149 -380 -102
-89 -239 -130 -465 -137 -107 -4 -158 -9 -161 -17 -3 -7 22 -34 55 -62 201
-166 296 -384 254 -582 -25 -118 -80 -222 -193 -360 -39 -48 -56 -92 -35 -92
40 0 204 -26 267 -42 187 -47 358 -172 422 -308 50 -106 58 -158 57 -340 -1
-104 2 -167 9 -172 6 -3 53 32 106 79 327 288 680 415 1004 358 189 -33 363
-119 570 -282 43 -34 85 -59 92 -57 8 4 16 29 20 62 16 146 48 224 118 289 69
64 170 74 339 33 54 -13 100 -21 103 -18 4 3 9 62 11 130 9 234 40 348 128
472 87 121 244 218 430 266 39 10 72 22 73 27 2 6 -16 13 -40 16 -67 9 -233
65 -312 104 -210 105 -295 237 -295 457 0 121 25 234 75 343 19 42 34 78 32
80 -2 2 -22 -3 -45 -11 -78 -28 -193 -39 -273 -27 -227 36 -339 180 -374 484
-3 31 -11 57 -17 57 -5 0 -52 -39 -103 -88 -51 -48 -132 -116 -181 -151 -105
-75 -299 -171 -404 -200 -225 -61 -448 -40 -667 64 -141 66 -234 136 -395 294
l-148 145 30 -90z m1885 -231 c27 -92 69 -164 127 -219 98 -93 201 -128 360
-122 54 1 98 3 98 2 0 0 -9 -27 -20 -60 -27 -77 -50 -211 -50 -288 1 -271 197
-483 507 -547 l63 -13 -89 -32 c-125 -44 -195 -87 -271 -163 -74 -75 -138
-187 -166 -291 -20 -76 -24 -274 -7 -333 9 -30 9 -37 0 -33 -113 50 -147 59
-217 60 -41 1 -97 -5 -123 -13 -63 -18 -139 -87 -171 -155 -29 -62 -51 -182
-42 -237 l6 -37 -63 65 c-224 234 -553 360 -844 323 -271 -34 -513 -158 -752
-385 -47 -44 -81 -71 -77 -61 32 89 38 244 12 346 -57 227 -221 382 -473 446
-67 17 -130 25 -198 27 l-100 2 81 80 c64 63 89 98 122 165 94 193 97 337 8
520 -22 47 -57 91 -121 156 -49 50 -102 100 -118 110 l-27 19 140 -3 c102 -3
162 1 222 13 219 44 362 173 414 375 19 70 24 234 11 308 l-8 44 73 -60 c350
-289 734 -359 1111 -202 157 65 328 184 470 324 l82 82 7 -78 c4 -43 14 -104
23 -135z"/>
<path d="M2748 3506 c-109 -45 -202 -129 -244 -221 -26 -58 -54 -185 -54 -247
0 -144 50 -268 140 -352 92 -85 134 -101 265 -101 123 1 171 14 283 83 91 54
156 114 212 194 58 82 63 116 24 147 -45 36 -66 28 -162 -63 -158 -146 -276
-211 -406 -222 -111 -10 -157 34 -177 168 -20 135 17 265 102 362 72 82 140
103 226 70 86 -33 122 21 67 102 -68 99 -162 127 -276 80z"/>
<path d="M2365 3505 c-74 -26 -107 -75 -160 -236 -58 -173 -85 -238 -112 -262
-21 -18 -21 -18 -27 85 -10 164 -15 190 -49 258 -25 51 -40 69 -70 84 -34 16
-42 17 -75 4 -55 -21 -131 -122 -214 -285 -87 -169 -81 -172 -134 65 -39 178
-56 223 -96 257 -44 37 -66 40 -94 14 -30 -28 -30 -38 1 -130 14 -41 35 -120
46 -175 26 -136 96 -388 120 -436 25 -49 58 -70 105 -66 l37 3 48 120 c56 136
152 331 184 371 l22 28 7 -103 c8 -111 25 -180 61 -252 40 -77 148 -159 190
-143 26 10 50 70 110 269 64 215 106 314 158 371 47 53 53 80 25 128 -28 47
-32 49 -83 31z"/>
<path d="M2207 2433 l-24 -47 -24 37 c-47 72 -72 57 -94 -57 -19 -99 -19 -115
1 -123 24 -9 44 23 45 71 0 23 4 49 7 59 6 14 12 9 30 -28 29 -61 57 -59 82 4
l17 44 6 -63 c6 -68 16 -86 43 -76 15 6 16 17 11 84 -8 104 -22 142 -53 142
-18 0 -29 -11 -47 -47z"/>
<path d="M2619 2431 c-34 -34 -39 -45 -39 -85 0 -67 38 -107 108 -114 38 -3
58 0 77 12 46 30 26 60 -30 45 -33 -10 -62 -4 -87 19 -26 22 -22 60 11 92 24
25 34 28 65 23 29 -4 36 -2 36 10 0 21 -31 37 -71 37 -23 0 -41 -10 -70 -39z"/>
<path d="M2899 2460 c-18 -11 -76 -131 -85 -178 -5 -25 -3 -32 10 -32 8 0 23
11 32 25 13 21 24 25 61 25 36 0 46 -4 50 -19 10 -39 53 -37 53 2 0 25 -54
144 -77 170 -18 19 -22 20 -44 7z m41 -102 c0 -4 -9 -8 -20 -8 -21 0 -24 8
-13 36 6 16 7 16 20 -2 7 -10 13 -21 13 -26z"/>
<path d="M3057 2453 c-10 -35 -19 -162 -13 -181 10 -31 58 -47 93 -30 40 19
38 53 -2 53 l-30 0 -5 85 c-4 69 -8 85 -22 88 -9 2 -19 -5 -21 -15z"/>
<path d="M1501 2418 c0 -23 8 -72 17 -108 14 -54 21 -66 40 -68 19 -3 26 4 39
37 17 44 33 54 33 20 0 -31 19 -59 40 -59 13 0 23 13 34 43 22 62 36 118 36
150 0 24 -4 28 -22 25 -22 -3 -29 -15 -44 -83 -7 -29 -7 -29 -15 14 -17 89
-47 89 -75 -1 l-18 -60 -20 63 c-26 77 -46 90 -45 27z"/>
<path d="M1905 2420 c-7 -40 -7 -40 -51 -40 -37 0 -44 3 -44 19 0 56 -36 70
-44 19 -3 -18 -2 -67 2 -108 5 -57 11 -75 22 -75 11 0 16 13 18 48 l3 47 45 0
c40 0 44 -2 44 -24 0 -37 18 -76 35 -76 8 0 16 6 16 13 3 28 -3 183 -7 200 -9
31 -32 18 -39 -23z"/>
<path d="M1990 2450 c-9 -6 -16 -32 -18 -79 -5 -88 2 -121 27 -121 26 0 31 19
31 110 0 81 -12 107 -40 90z"/>
<path d="M2356 2439 c-14 -11 -26 -31 -26 -43 0 -25 33 -60 68 -71 36 -11 26
-27 -13 -19 -42 8 -58 -16 -30 -46 20 -22 50 -25 88 -11 54 21 39 89 -25 122
-58 30 -48 46 25 40 31 -3 35 9 9 32 -25 23 -64 21 -96 -4z"/>
<path d="M2511 2447 c-6 -6 -11 -47 -11 -99 0 -71 3 -90 16 -95 8 -3 19 -2 24
3 12 12 24 136 16 167 -7 29 -29 40 -45 24z"/>
<path d="M1992 2193 c-7 -3 -19 -18 -28 -35 -17 -33 -12 -72 13 -100 22 -24
78 -23 103 2 24 24 26 40 5 40 -8 0 -15 -6 -15 -14 0 -30 -64 -35 -80 -7 -28
53 13 116 59 91 12 -6 21 -15 21 -20 0 -6 7 -10 15 -10 21 0 19 13 -8 38 -22
21 -56 27 -85 15z"/>
<path d="M2460 2185 c0 -8 5 -15 10 -15 6 0 10 7 10 15 0 8 -4 15 -10 15 -5 0
-10 -7 -10 -15z"/>
<path d="M2136 2134 c-36 -36 -9 -94 44 -94 31 0 50 23 50 59 0 27 -26 51 -55
51 -13 0 -31 -7 -39 -16z m69 -23 c9 -28 -5 -51 -30 -51 -25 0 -39 23 -30 51
4 12 16 19 30 19 14 0 26 -7 30 -19z"/>
<path d="M2260 2094 c0 -64 17 -73 22 -11 2 35 7 43 26 45 20 3 22 -1 22 -42
0 -25 5 -46 10 -46 6 0 10 10 10 23 0 46 12 68 34 65 17 -2 22 -11 24 -45 2
-24 7 -43 13 -43 14 0 11 86 -3 98 -7 5 -46 10 -85 9 l-73 0 0 -53z"/>
<path d="M2460 2095 c0 -30 5 -55 10 -55 6 0 10 25 10 55 0 30 -4 55 -10 55
-5 0 -10 -25 -10 -55z"/>
<path d="M2522 2138 c-7 -7 -12 -26 -12 -43 0 -38 16 -55 50 -55 29 0 50 17
50 40 -1 12 -3 12 -15 -3 -21 -28 -59 -19 -63 16 -4 32 21 46 50 28 25 -15 35
-7 18 14 -15 18 -61 20 -78 3z"/>
<path d="M2634 2135 c-10 -25 3 -43 35 -50 44 -9 40 -29 -5 -22 -25 4 -34 2
-31 -6 2 -7 21 -12 43 -12 35 0 39 3 39 25 0 20 -7 27 -32 35 -44 12 -42 29 2
21 20 -4 35 -3 35 2 0 24 -78 30 -86 7z"/>
<path d="M290 4001 c0 -30 313 -188 538 -273 140 -52 36 51 -118 117 -94 41
-407 165 -415 165 -3 0 -5 -4 -5 -9z"/>
<path d="M4060 2335 c0 -21 76 -61 161 -85 146 -40 484 -109 493 -100 11 11
-14 23 -131 64 -97 35 -412 118 -485 129 -29 4 -38 2 -38 -8z"/>
<path d="M3435 1631 c-8 -15 13 -89 38 -131 71 -119 191 -300 198 -300 17 0 9
33 -32 124 -44 100 -167 308 -186 313 -6 2 -14 -1 -18 -6z"/>
</g>
</svg>
