<?xml version="1.0" standalone="no"?>
<!DOCTYPE svg PUBLIC "-//W3C//DTD SVG 20010904//EN"
 "http://www.w3.org/TR/2001/REC-SVG-20010904/DTD/svg10.dtd">
<svg version="1.0" xmlns="http://www.w3.org/2000/svg"
 width="500.000000pt" height="500.000000pt" viewBox="0 0 500.000000 500.000000"
 preserveAspectRatio="xMidYMid meet">

<g transform="translate(0.000000,500.000000) scale(0.100000,-0.100000)"
fill="#000000" stroke="none">
<path d="M620 4315 c0 -39 46 -126 135 -257 120 -175 158 -224 163 -210 6 19
-98 207 -192 350 -84 126 -106 150 -106 117z"/>
<path d="M1220 4194 c49 -141 62 -218 62 -344 0 -177 -43 -287 -149 -380 -102
-89 -239 -130 -465 -137 -107 -4 -158 -9 -161 -17 -3 -7 22 -34 55 -62 201
-166 296 -384 254 -582 -25 -118 -80 -222 -193 -360 -39 -48 -56 -92 -35 -92
40 0 204 -26 267 -42 187 -47 358 -172 422 -308 50 -106 58 -158 57 -340 -1
-104 2 -167 9 -172 6 -3 53 32 106 79 327 288 680 415 1004 358 189 -33 363
-119 570 -282 43 -34 85 -59 92 -57 8 4 16 29 20 62 16 146 48 224 118 289 69
64 170 74 339 33 54 -13 100 -21 103 -18 4 3 9 62 11 130 9 234 40 348 128
472 87 121 244 218 430 266 39 10 72 22 73 27 2 6 -16 13 -40 16 -67 9 -233
65 -312 104 -210 105 -295 237 -295 457 0 121 25 234 75 343 19 42 34 78 32
80 -2 2 -22 -3 -45 -11 -78 -28 -193 -39 -273 -27 -227 36 -339 180 -374 484
-3 31 -11 57 -17 57 -5 0 -52 -39 -103 -88 -51 -48 -132 -116 -181 -151 -105
-75 -299 -171 -404 -200 -225 -61 -448 -40 -667 64 -141 66 -234 136 -395 294
l-148 145 30 -90z m1885 -231 c27 -92 69 -164 127 -219 98 -93 201 -128 360
-122 54 1 98 3 98 2 0 0 -9 -27 -20 -60 -27 -77 -50 -211 -50 -288 1 -271 197
-483 507 -547 l63 -13 -89 -32 c-125 -44 -195 -87 -271 -163 -74 -75 -138
-187 -166 -291 -20 -76 -24 -274 -7 -333 9 -30 9 -37 0 -33 -113 50 -147 59
-217 60 -41 1 -97 -5 -123 -13 -63 -18 -139 -87 -171 -155 -29 -62 -51 -182
-42 -237 l6 -37 -63 65 c-224 234 -553 360 -844 323 -271 -34 -513 -158 -752
-385 -47 -44 -81 -71 -77 -61 32 89 38 244 12 346 -57 227 -221 382 -473 446
-67 17 -130 25 -198 27 l-100 2 81 80 c64 63 89 98 122 165 94 193 97 337 8
520 -22 47 -57 91 -121 156 -49 50 -102 100 -118 110 l-27 19 140 -3 c102 -3
162 1 222 13 219 44 362 173 414 375 19 70 24 234 11 308 l-8 44 73 -60 c350
-289 734 -359 1111 -202 157 65 328 184 470 324 l82 82 7 -78 c4 -43 14 -104
23 -135z"/>
<path d="M2894 3291 c-107 -39 -225 -133 -277 -222 -43 -73 -67 -188 -67 -313
0 -169 37 -271 132 -372 96 -101 195 -140 342 -132 197 11 411 143 536 330 48
72 51 108 14 143 -48 45 -74 35 -177 -63 -107 -101 -241 -194 -324 -224 -33
-12 -92 -23 -138 -25 -68 -4 -85 -1 -112 16 -59 37 -85 114 -85 253 0 132 41
235 131 332 75 80 148 103 230 70 46 -18 90 -15 104 7 30 47 -40 155 -127 195
-61 28 -113 30 -182 5z"/>
<path d="M1144 3267 c-33 -29 -34 -53 0 -153 14 -44 37 -135 51 -204 34 -168
112 -447 137 -488 37 -61 122 -83 153 -40 8 13 32 66 52 118 45 119 186 400
211 424 19 16 20 15 27 -81 11 -166 44 -271 113 -361 29 -38 116 -92 149 -92
45 0 50 14 178 422 45 143 90 237 144 302 46 55 50 79 21 136 -24 48 -52 52
-120 18 -66 -34 -95 -85 -166 -294 -57 -168 -102 -264 -124 -264 -5 0 -11 48
-15 108 -11 170 -21 223 -55 296 -28 60 -38 71 -77 88 -59 26 -98 13 -157 -53
-63 -71 -104 -136 -181 -289 l-68 -135 -14 34 c-8 19 -32 113 -54 210 -53 237
-65 263 -139 301 l-39 20 -27 -23z"/>
<path d="M290 4001 c0 -30 313 -188 538 -273 140 -52 36 51 -118 117 -94 41
-407 165 -415 165 -3 0 -5 -4 -5 -9z"/>
<path d="M4060 2335 c0 -21 76 -61 161 -85 146 -40 484 -109 493 -100 11 11
-14 23 -131 64 -97 35 -412 118 -485 129 -29 4 -38 2 -38 -8z"/>
<path d="M3435 1631 c-8 -15 13 -89 38 -131 71 -119 191 -300 198 -300 17 0 9
33 -32 124 -44 100 -167 308 -186 313 -6 2 -14 -1 -18 -6z"/>
</g>
</svg>
